<svg xmlns="http://www.w3.org/2000/svg" width="275" height="795" fill="none" viewBox="0 0 275 795"><rect width="275" height="35" y="218" fill="#9ED4FF" rx="10"/><rect width="275" height="35" y="271" fill="#9ED4FF" rx="10"/><rect width="275" height="35" y="324" fill="#9ED4FF" rx="10"/><rect width="275" height="35" y="377" fill="#9ED4FF" rx="10"/><path fill="#9ED4FF" d="M0 445C0 436.716 6.71573 430 15 430H260C268.284 430 275 436.716 275 445V745H0V445Z"/><ellipse cx="137.5" cy="745" fill="#9ED4FF" rx="137.5" ry="50"/><path fill="#9ED4FF" d="M0 165H275V185C275 193.284 268.284 200 260 200H15C6.71573 200 0 193.284 0 185V165Z"/><path fill="#9ED4FF" d="M273.899 165.5H1.10107L83.9016 53.5H191.099L273.899 165.5Z"/><rect width="150" height="35" x="63" fill="#9ED4FF" rx="15"/></svg>