<svg width="150" height="150" viewBox="0 0 150 150" fill="none" xmlns="http://www.w3.org/2000/svg">
<circle opacity="0.18" cx="75" cy="75" r="75" fill="#2A7AE2"/>
<mask id="mask0" mask-type="alpha" maskUnits="userSpaceOnUse" x="0" y="0" width="150" height="150">
<circle cx="75" cy="75" r="75" fill="#2A7AE2"/>
</mask>
<g mask="url(#mask0)">
<path d="M62.2363 101.126C62.2363 101.126 41.6143 101.544 31.1359 118.736C31.1359 118.736 25.6694 143.167 26.3512 148.376L39.8679 142.259C40.2746 143.37 60.1311 151.207 77.4397 150.431C109.366 149.009 123.827 132.857 123.827 132.857C123.827 132.857 120.442 109.931 101.519 104.722C82.5952 99.5131 62.2363 101.126 62.2363 101.126Z" fill="#2A7AE2"/>
<path d="M62.0928 100.099C62.0928 100.099 57.6311 100.78 57.7746 104.005C57.9182 107.231 58.4565 116.944 63.4684 114.614C68.4804 112.284 72.7268 105.236 72.7268 105.236L62.0928 100.099Z" fill="white"/>
<path d="M85.2627 100.099C85.2627 100.099 89.7244 100.78 89.5928 104.005C89.4612 107.231 88.899 116.944 83.899 114.614C78.899 112.284 74.6406 105.236 74.6406 105.236L85.2627 100.099Z" fill="white"/>
<path d="M45.2268 53.6014C45.2268 53.6014 40.155 85.6548 52.9062 89.7525C54.2969 90.5783 55.8425 91.1104 57.4473 91.3159C59.0521 91.5214 60.682 91.3959 62.2363 90.9472V101.078C62.2363 101.078 75.1191 110.803 85.6813 100.397V74.3172C85.6813 74.3172 84.4852 58.3682 81.2914 60.0646C80.5617 60.4708 74.1143 59.8018 73.0617 48.1178C73.0617 48.1178 58.2531 41.547 51.399 46.0629C44.545 50.5788 45.2268 53.6014 45.2268 53.6014Z" fill="#F7AF87"/>
<path d="M42.1048 52.5262C42.88 53.9323 43.9309 55.1679 45.1948 56.1593C46.4588 57.1507 47.9098 57.8776 49.4612 58.2965C51.025 58.6689 52.6666 58.5378 54.1512 57.922C55.6358 57.3061 56.8873 56.2371 57.7268 54.8678C59.0077 56.6638 60.9053 57.9265 63.0581 58.4156C65.2109 58.9047 67.4687 58.5859 69.4014 57.52C71.1 59.9093 74.3416 60.5664 77.2483 60.3872C80.9747 60.2198 84.5233 58.748 87.2722 56.2297C88.6083 54.9543 89.6283 53.3854 90.2512 51.6476C90.8741 49.9097 91.0828 48.0507 90.8607 46.2183C90.2268 41.9293 86.9852 38.4767 83.5163 35.8842C78.0327 31.7109 71.533 29.0754 64.6885 28.2502C58.5043 27.5573 48.6239 28.2502 43.8871 32.9095C39.1502 37.5687 38.7196 46.8395 42.1048 52.5262Z" fill="#DD6034"/>
<path d="M62.2364 91.0428C62.2364 91.0428 70.0473 88.988 72.9301 85.4278C72.9301 85.4278 68.9469 101.042 62.2364 101.174V91.0428Z" fill="url(#paint0_linear)"/>
<path d="M78.0856 55.8952L78.6478 66.946L80.8727 63.9115C81.2076 63.4456 81.6622 62.9438 82.2244 63.0394C82.7866 63.135 82.9182 63.5292 83.1096 63.9115C83.977 65.6923 84.2858 67.6932 83.9955 69.6523C83.7053 71.6113 82.8294 73.4371 81.4828 74.8907C81.0086 75.2989 80.6221 75.7988 80.3464 76.3601C80.2128 76.8462 80.1802 77.3544 80.2507 77.8535C80.478 81.0792 85.2387 84.8663 86.0521 82.5247C86.8655 80.1831 87.021 77.6385 87.7866 75.273C88.9979 72.23 90.699 69.4052 92.8225 66.9102C94.9668 64.4066 96.593 61.5033 97.6072 58.3682C98.3966 55.1903 97.7746 51.451 95.2148 49.3603C94.7341 49.0533 94.3259 48.6457 94.0186 48.1656C93.8727 47.7839 93.7958 47.3794 93.7914 46.9709C93.5077 43.002 91.8646 39.2516 89.1383 36.3502C87.7668 34.9171 86.1067 33.7907 84.2676 33.0453C82.4284 32.2998 80.4519 31.9522 78.4684 32.0254C77.7965 32.0295 77.1342 32.1846 76.5306 32.4794C75.9809 32.8593 75.517 33.3501 75.1688 33.9201C74.8206 34.4901 74.5959 35.1266 74.5091 35.7886C73.2292 41.7621 76.0043 47.7355 77.045 53.8045" fill="#DD6034"/>
</g>
<defs>
<linearGradient id="paint0_linear" x1="72.966" y1="101.353" x2="62.2244" y2="70.2829" gradientUnits="userSpaceOnUse">
<stop stop-opacity="0"/>
<stop offset="0.99"/>
</linearGradient>
</defs>
</svg>
