<svg xmlns="http://www.w3.org/2000/svg" width="150" height="150" fill="none" viewBox="0 0 150 150"><circle cx="75" cy="75" r="75" fill="#2A7AE2" opacity=".18"/><mask id="mask0" width="150" height="150" x="0" y="0" mask-type="alpha" maskUnits="userSpaceOnUse"><circle cx="75" cy="75" r="75" fill="#2A7AE2"/></mask><g mask="url(#mask0)"><path fill="#2A7AE2" d="M61.93 101.137C61.93 101.137 41.3146 101.555 30.8394 118.748C30.8394 118.748 23.6647 143.385 24.3822 148.618L40.3101 143.409C48.2502 147.841 60.1722 151.235 77.1285 150.47C109.104 149.048 123.501 132.859 123.501 132.859C123.501 132.859 120.117 109.93 101.2 104.721C82.2824 99.5116 61.93 101.137 61.93 101.137Z"/><path fill="#404040" d="M106.748 73.7277C109.343 60.4893 111.675 40.0582 102.551 35.8764L96.5721 35.6016C96.5721 35.6016 92.1835 25.4457 74.6054 27.0946C57.0273 28.7434 39.3057 43.547 47.3175 67.5984C51.4788 80.0721 44.0888 98.2212 44.0888 98.2212L69.9418 98.1256L109.857 96.8591C106.285 89.7057 105.191 81.5694 106.748 73.7277V73.7277Z"/><path fill="#F7AF87" d="M102.826 53.3563C102.826 53.3563 107.896 85.4129 95.149 89.523C93.7593 90.3502 92.2142 90.8831 90.6097 91.0887C89.0052 91.2942 87.3755 91.168 85.8219 90.7178V100.862C85.8219 100.862 72.9432 110.587 62.3844 100.169V74.0025C62.3844 74.0025 63.5802 58.0639 66.7729 59.7605C67.5024 60.1548 73.9477 59.4857 75 47.8124C75 47.8124 89.8039 41.2291 96.6557 45.7574C103.508 50.2857 102.826 53.3563 102.826 53.3563Z"/><path fill="url(#paint0_linear)" d="M85.8219 90.7537C85.8219 90.7537 78.0134 88.6986 75.1315 85.1381C75.1315 85.1381 79.1015 100.754 85.8219 100.898V90.7537Z"/><path fill="#404040" d="M92.2194 44.0608C88.2613 44.0608 83.9565 44.6223 81.1703 47.4182C77.7264 50.8711 77.8101 56.3672 76.3034 61.0031C75.1909 64.5351 72.9632 67.612 69.9538 69.7729C68.4469 70.8344 66.7433 71.585 64.9426 71.981C63.142 72.3769 61.2804 72.4102 59.4667 72.0789C59.0942 72.0397 58.7335 71.9252 58.4067 71.7424C58.0798 71.5596 57.7936 71.3123 57.5654 71.0155C57.3135 70.4794 57.2261 69.8807 57.3143 69.295C57.6611 62.7236 58.4383 55.9252 61.8344 50.2976C63.7295 47.1858 66.3462 44.5754 69.4635 42.6868C71.2744 41.5315 73.3141 40.7815 75.4425 40.4883C79.6277 40.0104 83.6934 41.8743 87.4841 43.7023"/><path fill="#fff" d="M61.7985 100.109C61.7985 100.109 57.3382 100.79 57.4817 104.016C57.6252 107.242 58.1633 116.956 63.1737 114.626C68.184 112.296 72.4291 105.247 72.4291 105.247L61.7985 100.109Z"/><path fill="#fff" d="M84.9609 100.109C84.9609 100.109 89.4212 100.79 89.2897 104.016C89.1582 107.242 88.5961 116.956 83.5977 114.626C78.5993 112.296 74.3423 105.247 74.3423 105.247L84.9609 100.109Z"/><path fill="#fff" d="M73.1345 120.54C74.5016 120.54 75.6098 119.433 75.6098 118.067C75.6098 116.701 74.5016 115.594 73.1345 115.594C71.7675 115.594 70.6593 116.701 70.6593 118.067C70.6593 119.433 71.7675 120.54 73.1345 120.54Z"/><path fill="#fff" d="M73.1345 129.286C74.5016 129.286 75.6098 128.179 75.6098 126.813C75.6098 125.447 74.5016 124.34 73.1345 124.34C71.7675 124.34 70.6593 125.447 70.6593 126.813C70.6593 128.179 71.7675 129.286 73.1345 129.286Z"/><path fill="#fff" d="M73.1345 138.032C74.5016 138.032 75.6098 136.925 75.6098 135.559C75.6098 134.193 74.5016 133.086 73.1345 133.086C71.7675 133.086 70.6593 134.193 70.6593 135.559C70.6593 136.925 71.7675 138.032 73.1345 138.032Z"/></g><defs><linearGradient id="paint0_linear" x1="74.558" x2="85.304" y1="101.364" y2="69.696" gradientUnits="userSpaceOnUse"><stop stop-opacity="0"/><stop offset="1"/></linearGradient></defs></svg>