<svg xmlns="http://www.w3.org/2000/svg" width="150" height="150" fill="none" viewBox="0 0 150 150"><circle cx="75" cy="75" r="75" fill="#2A7AE2" opacity=".18"/><mask id="mask0" width="150" height="150" x="0" y="0" mask-type="alpha" maskUnits="userSpaceOnUse"><circle cx="75" cy="75" r="75" fill="#2A7AE2"/></mask><g mask="url(#mask0)"><path fill="#2A7AE2" d="M61.866 101.137C61.866 101.137 41.244 101.555 30.7058 118.748C30.7058 118.748 23.5287 143.385 24.2464 148.618L40.1794 143.409C48.122 147.841 60.0479 151.235 77.0216 150.47C108.995 149.048 123.397 132.859 123.397 132.859C123.397 132.859 120.012 109.93 101.089 104.721C82.1651 99.5116 61.866 101.137 61.866 101.137Z"/><path fill="#F7AF87" d="M63.421 83.5968C63.421 83.5968 63.1579 98.1615 61.866 101.137C60.5742 104.112 71.9976 113.204 83.6962 104.9L84.4737 101.256C84.4737 101.256 82.4043 91.136 83.6962 82.3064C84.988 73.4768 63.421 83.5968 63.421 83.5968Z"/><path fill="url(#paint0_linear)" d="M63.2416 85.5085C63.2416 85.5085 65.2871 95.2939 73.9474 95.975C82.6077 96.656 83.3134 93.7287 83.3134 93.7287L83.5287 81.1833L63.2416 85.5085Z"/><path fill="#F7AF87" d="M50.2512 54.0135C49.7535 53.6534 49.1827 53.4069 48.5792 53.2913C47.9757 53.1757 47.3541 53.1938 46.7584 53.3444C46.2965 53.5371 45.8867 53.8359 45.5622 54.2166C43.744 56.1402 43.8397 59.175 44.3661 61.7678C44.69 63.2224 45.1301 64.6487 45.6818 66.0332C45.9037 66.6762 46.2311 67.2778 46.6507 67.8135C47.9306 69.3548 50.2392 69.5579 52.2129 69.3309C52.8064 69.331 53.3913 69.1902 53.9196 68.9202C54.4478 68.6501 54.9043 68.2585 55.2512 67.7776C55.4317 67.3655 55.5371 66.9244 55.5622 66.4753C56.0646 61.254 54.8326 56.7854 50.2512 54.0135Z"/><path fill="#F7AF87" d="M99.689 56.1402C101.16 55.1127 103.074 54.3241 104.725 55.0291C105.371 55.3548 105.921 55.8438 106.32 56.4474C106.718 57.051 106.952 57.7483 106.998 58.4701C107.08 59.9182 106.826 61.3657 106.256 62.6997C105.693 64.4147 104.803 66.005 103.636 67.3833C102.445 68.7476 100.775 69.6031 98.9713 69.7729C98.0705 69.8405 97.1689 69.6519 96.3708 69.229C95.5728 68.8061 94.9109 68.1662 94.4618 67.3833C94.0225 66.3329 93.8184 65.1992 93.8637 64.0618C93.7811 63.1822 93.8829 62.2951 94.1627 61.4571C94.8685 59.7246 98.1818 57.1797 99.689 56.1402Z"/><path fill="#F7AF87" d="M98.1699 61.0509C96.3038 76.667 87.6076 89.523 74.5933 89.523C61.579 89.523 51.0287 76.7745 51.0287 61.0509C51.0287 45.3273 59.402 27.5964 72.4163 27.5964C85.4306 27.5964 101.974 29.1138 98.1699 61.0509Z"/><path fill="#404040" d="M51.0407 53.8701L51.256 57.3589C51.256 57.9086 51.4354 58.5537 51.9737 58.7091C52.512 58.8644 53.0383 57.8966 53.0502 57.1797C53.0502 54.3122 52.1531 51.0743 53.9354 48.8161C54.3815 48.3753 54.7822 47.891 55.1316 47.3704C55.8732 45.8769 54.7488 43.9772 55.4186 42.4478C55.8134 41.5756 56.6866 41.0379 57.3206 40.3091C58.0982 39.1703 58.6915 37.9163 59.079 36.5933C59.2231 36.1482 59.5034 35.7596 59.8804 35.4821C60.24 35.3325 60.6182 35.232 61.0048 35.1834C62.4641 34.813 63.3253 33.3195 64.5933 32.5429C65.7409 31.9724 67.0249 31.7324 68.3014 31.8499C73.2895 32.0052 78.4808 33.7735 83.0981 31.8499C84.9953 34.5433 87.8793 36.3808 91.1244 36.9636C91.3951 36.9796 91.6561 37.0706 91.878 37.2265C92.0914 37.4834 92.2319 37.7929 92.2847 38.1226C92.761 39.1731 93.4352 40.1222 94.2703 40.9184C97.1531 44.5028 97.0933 49.4613 96.878 54.0613L96.543 61.3615L99.0909 57.0841C99.3531 56.5848 99.6967 56.1325 100.108 55.7459C100.574 55.3517 101.196 55.1127 101.483 54.5511C101.604 54.2712 101.673 53.9716 101.687 53.667L102.309 47.4062C102.491 46.2782 102.45 45.1254 102.189 44.013C101.974 43.32 101.591 42.6868 101.376 41.9938C101.136 40.7211 101.1 39.4186 101.268 38.1346C101.351 37.4914 101.293 36.8381 101.099 36.2193C100.905 35.6006 100.579 35.0312 100.144 34.5502C100.981 31.7543 101.77 28.7912 101.112 25.9476C100.455 23.1039 97.811 20.5112 94.9282 20.9414C94.4916 21.0571 94.0371 21.0896 93.5885 21.0369C93.2105 20.9073 92.8641 20.6997 92.5718 20.4276C90.5607 18.8454 88.107 17.9268 85.5502 17.799C82.5389 17.6078 79.5185 17.6078 76.5072 17.799C69.7368 18.3606 62.6316 16.9626 56.3038 19.4C54.7801 19.9612 53.376 20.8044 52.165 21.8852C50.9155 23.159 49.8415 24.5935 48.9713 26.1507C48.4855 26.8433 48.1252 27.6157 47.9067 28.4328C47.8045 29.3299 47.8045 30.2358 47.9067 31.133C47.9067 34.132 46.3756 37.107 46.878 40.0343C47.0574 41.1216 47.5 42.1371 47.6555 43.2244C47.7392 44.2143 47.7392 45.2096 47.6555 46.1995C47.5729 48.7039 48.0129 51.1981 48.9474 53.5236C49.1029 53.9179 49.3541 54.3719 49.7847 54.4078C50.2153 54.4436 50.6579 53.4041 51.0407 53.8701Z"/><path fill="#404040" d="M54.4737 80.108C54.7968 81.5529 55.2948 82.9532 55.9569 84.2778C57.6566 87.1581 60.335 89.3332 63.5048 90.4072C66.656 91.454 69.9566 91.9826 73.2775 91.9724C77.7338 92.0924 82.192 91.8286 86.6029 91.1838C88.1818 90.9568 88.0622 90.6103 89.3302 89.6664C91.3756 88.1371 93.7201 85.4129 94.1149 82.8919C95.3828 75.4005 97.5 64.9698 97.189 57.3709C95.1555 61.1226 95.1795 69.1516 92.2249 72.2342C90.622 73.895 88.2297 74.4685 85.9569 74.8389C78.645 76.0484 71.1759 75.9473 63.8995 74.5402C61.6983 74.291 59.6187 73.402 57.9187 71.9833C55.3349 69.4384 55.5263 65.3402 54.9641 61.7558C54.7368 60.1787 54.1268 57.8249 52.3923 57.2992C51.866 60.4415 52.5837 63.8826 52.6555 67.0488C52.7623 71.4568 53.3723 75.8382 54.4737 80.108V80.108Z"/><path fill="url(#paint1_linear)" d="M101.842 59.0197C101.837 58.6609 101.881 58.3031 101.974 57.9563C102.022 57.7838 102.123 57.6304 102.262 57.5171C102.401 57.4037 102.572 57.336 102.751 57.3231C103.134 57.3231 103.409 57.6815 103.589 58.0161C104.232 59.4331 104.296 61.0448 103.768 62.5085C103.376 64.0016 102.453 65.3012 101.172 66.1646C100.859 66.3977 100.487 66.5381 100.098 66.5698C99.7083 66.6015 99.3181 66.5232 98.9713 66.3439C97.7751 65.5194 98.2536 63.1059 99.3182 62.4368C99.9761 62.0306 100.514 62.0784 101.029 61.3615C101.521 60.6759 101.803 59.8625 101.842 59.0197V59.0197Z"/><path fill="url(#paint2_linear)" d="M48.6079 58.8524C48.6128 58.4936 48.5686 58.1359 48.4763 57.7891C48.4276 57.6165 48.3268 57.4631 48.1877 57.3498C48.0486 57.2365 47.8779 57.1687 47.6988 57.1558C47.316 57.1558 47.0409 57.5143 46.8615 57.8488C46.2183 59.2658 46.1539 60.8776 46.6821 62.3413C47.0741 63.8343 47.9968 65.1339 49.2778 65.9974C49.5909 66.2305 49.9633 66.3709 50.3525 66.4026C50.7417 66.4343 51.132 66.356 51.4787 66.1766C52.6749 65.3522 52.1964 62.9387 51.1318 62.2696C50.4739 61.8633 49.9357 61.9111 49.4213 61.1942C48.9291 60.5087 48.6465 59.6952 48.6079 58.8524V58.8524Z"/><path fill="#2A7AE2" d="M88.4928 95.1745C87.2945 94.6325 85.9736 94.4181 84.6651 94.5531C76.5909 94.7682 68.2416 96.4409 60.6459 93.7048C59.3439 94.9677 58.3883 96.5434 57.8708 98.2809C57.0933 101.949 60.1914 105.354 63.5407 107.027C69.1986 109.871 75.8254 109.811 82.1412 109.417C84.6172 109.273 87.2966 109.022 89.1387 107.349C92.0694 104.745 92.2249 97.2654 88.4928 95.1745Z"/><path fill="url(#paint3_linear)" d="M57.7153 101.005C57.7153 101.005 55.1077 107.23 68.11 107.493C68.11 107.493 55.1076 107.756 51.4713 110.611C47.8349 113.467 38.7321 117.876 38.2177 123.599C37.7034 129.322 34.5694 144.627 34.5694 144.627L24.2225 148.594L30.6818 118.724C33.7434 114.088 37.7203 110.126 42.3687 107.079C47.0171 104.032 52.2392 101.965 57.7153 101.005V101.005Z" opacity=".18"/></g><defs><linearGradient id="paint0_linear" x1="73.84" x2="80.404" y1="68.507" y2="100.769" gradientUnits="userSpaceOnUse"><stop/><stop offset="1" stop-opacity="0"/></linearGradient><linearGradient id="paint1_linear" x1="103.744" x2="95.983" y1="54.169" y2="70.306" gradientUnits="userSpaceOnUse"><stop stop-opacity="0"/><stop offset="1"/></linearGradient><linearGradient id="paint2_linear" x1="46.706" x2="54.467" y1="54.002" y2="70.138" gradientUnits="userSpaceOnUse"><stop stop-opacity="0"/><stop offset="1"/></linearGradient><linearGradient id="paint3_linear" x1="14608.5" x2="12837.9" y1="11641.3" y2="6008.85" gradientUnits="userSpaceOnUse"><stop stop-opacity="0"/><stop offset=".99"/></linearGradient></defs></svg>