<svg xmlns="http://www.w3.org/2000/svg" width="500" height="500" fill="none" viewBox="0 0 500 500"><path fill="#2A7AE2" d="M55.5473 342.662C55.5473 342.662 6.29179 179.82 201.323 119.48C369.781 67.3765 484.205 242.447 440.732 342.662C424.192 380.778 55.5473 342.662 55.5473 342.662Z" opacity=".18"/><path fill="#25233A" d="M344.629 210.914C344.653 209.361 345.774 207.78 347.342 207.556C347.494 207.527 347.652 207.537 347.799 207.584C347.914 207.639 348.016 207.719 348.095 207.818C348.973 208.823 348.624 210.371 348.017 211.553C347.458 212.548 346.971 213.582 346.561 214.645C345.313 214.311 344.614 212.096 344.629 210.914Z"/><path fill="#2A7AE2" d="M344.57 232.243L334.686 253.547L316.845 249.836L313.869 254.981C313.869 254.981 333.331 262.565 335.497 262.037C337.662 261.508 344.958 254.981 344.958 254.981L344.57 232.243Z"/><path fill="url(#paint0_linear)" d="M344.57 232.243L334.686 253.547L316.845 249.836L313.869 254.981C313.869 254.981 333.331 262.565 335.497 262.037C337.662 261.508 344.958 254.981 344.958 254.981L344.57 232.243Z"/><path fill="#2A7AE2" d="M131.678 210.729C124.728 210.731 117.891 212.446 111.792 215.715C105.693 218.984 100.527 223.703 96.7696 229.44C93.0118 235.177 90.7815 241.747 90.2833 248.549C89.7851 255.351 91.0349 262.167 93.9181 268.373L96.4037 272.922L127.959 330.637L162.651 278.553L169.447 268.373C172.33 262.167 173.58 255.351 173.082 248.549C172.584 241.747 170.353 235.177 166.596 229.44C162.838 223.703 157.673 218.984 151.574 215.715C145.475 212.446 138.637 210.731 131.687 210.729H131.678ZM131.678 229.465C135.534 229.466 139.302 230.589 142.508 232.692C145.714 234.795 148.212 237.783 149.687 241.279C151.161 244.775 151.547 248.622 150.794 252.333C150.041 256.044 148.184 259.452 145.457 262.127C142.73 264.803 139.256 266.624 135.475 267.362C131.693 268.1 127.773 267.721 124.211 266.273C120.649 264.824 117.604 262.372 115.462 259.226C113.32 256.08 112.177 252.381 112.177 248.597C112.177 246.085 112.681 243.596 113.661 241.275C114.641 238.953 116.078 236.844 117.889 235.067C119.7 233.291 121.849 231.882 124.215 230.92C126.581 229.959 129.117 229.465 131.678 229.465V229.465Z"/><path fill="#2A7AE2" d="M147.625 333.791H102.753V342.281H147.625V333.791Z"/><path fill="#2A7AE2" d="M440.741 341.78C435.021 350.645 427.229 358.043 418.012 363.361C377.592 386.409 310.107 371.593 256.4 373.57C220.538 374.895 170.496 405.327 96.6372 379.897C83.4422 375.357 56.9308 348.688 55.5569 341.785L440.741 341.78Z"/><path fill="url(#paint1_linear)" d="M440.741 341.78C435.021 350.645 427.229 358.043 418.012 363.361C377.592 386.409 310.107 371.593 256.4 373.57C220.538 374.895 170.496 405.327 96.6372 379.897C83.4422 375.357 56.9308 348.688 55.5569 341.785L440.741 341.78Z"/><path fill="#1D2741" d="M308.214 345.449L311.806 348.964C311.142 349.045 310.504 349.266 309.935 349.611C309.366 349.957 308.88 350.419 308.51 350.965C307.835 352.094 307.976 353.724 309.029 354.529C310.083 355.334 311.67 355.086 313.02 354.805C333.579 350.465 354.872 351.99 375.898 351.704C380.15 351.647 384.636 351.451 388.248 349.265C389.034 348.788 389.85 348.069 389.792 347.159C389.714 345.973 388.243 345.396 387.034 345.401C383.786 345.401 379.927 347.364 377.684 345.063C376.917 344.272 376.558 343.11 375.626 342.519C374.096 341.566 372.145 342.643 370.567 343.524C362.921 347.769 353.527 347.002 344.789 346.111C342.688 345.962 340.606 345.623 338.57 345.096C336.327 344.443 334.244 343.348 332.031 342.609C327.428 341.08 322.554 341.242 317.777 341.657C316.641 341.728 307.252 344.505 308.214 345.449Z" opacity=".18"/><path fill="#25233A" d="M342.934 278.639L351.702 309.957L369.95 334.839L375.669 331.038L362.989 306.646L365.115 282.04L347.138 274.475L342.934 278.639Z"/><path fill="#3F3D56" d="M327.793 331.805L334.191 335.616C334.191 335.616 340.745 313.778 345.279 307.208C355.833 291.93 364.489 281.807 364.489 281.807L349.318 274.575L349.129 274.48L346.138 281.15L334.045 301.73L332.526 308.347L327.793 331.805Z"/><path fill="#2A7AE2" d="M379.193 307.88L380.786 321.038L354.673 324.106L349.207 323.449L351.532 299.757L352.886 298.247L379.193 307.88Z"/><path fill="url(#paint2_linear)" d="M379.193 307.88L380.786 321.038L354.673 324.106L349.207 323.449L351.532 299.757L352.886 298.247L379.193 307.88Z"/><path fill="url(#paint3_linear)" d="M379.193 307.88L380.786 321.038L354.673 324.106L349.207 323.449L351.532 299.757L352.886 298.247L379.193 307.88Z"/><path fill="url(#paint4_linear)" d="M354.425 323.587L352.925 302.983L351.624 300.429L349.949 322.901L354.425 323.587Z"/><path fill="url(#paint5_linear)" d="M354.425 323.587L352.925 302.983L351.624 300.429L349.949 322.901L354.425 323.587Z"/><path fill="#2A7AE2" d="M369.931 291.449C369.931 291.449 372.15 292.716 372.261 296.389H370.586C370.586 296.389 370.475 293.703 369.188 293.431L369.931 291.449Z"/><path fill="#2A7AE2" d="M342.56 281.874L346.93 274.475L351.944 283.022C351.944 283.022 360.289 282.941 365.372 281.94L366.037 281.802C368.013 281.354 369.334 280.74 369.193 279.897C369.062 279.13 368.547 276.786 368.173 273.656C367.738 270.27 367.652 266.849 367.916 263.447C368.149 260.76 369.372 258.03 370.266 255.557C370.72 254.401 371.045 253.2 371.237 251.975C371.443 250.035 371.768 248.108 372.208 246.206C372.608 244.513 372.76 242.772 372.659 241.037C372.557 237.154 371.814 232.938 371.373 232.071C370.931 231.204 366.945 229.399 364.528 228.393C363.435 227.917 362.663 227.636 362.663 227.636H352.954L344.58 232.238C344.58 232.238 342.944 242.242 342.721 244.348C342.497 246.454 345.192 254.986 345.42 257.272C345.968 262.975 342.56 281.874 342.56 281.874Z"/><path fill="url(#paint6_linear)" d="M359.299 260.455L364.489 281.802H366.023C367.999 281.354 369.319 280.74 369.179 279.897C368.926 278.42 367.237 270.998 367.897 263.452C368.261 259.355 370.844 255.219 371.247 251.975L364.999 245.11L359.299 260.455Z"/><path fill="#fff" d="M362.659 227.641L351.008 246.268C351.008 246.268 351.493 232.452 352.236 230.07C352.979 227.688 362.659 227.641 362.659 227.641Z"/><path fill="url(#paint7_linear)" d="M360.091 221.176C360.091 221.176 361.62 227.226 362.659 227.641C361.431 229.342 359.573 230.503 357.484 230.875C356.294 231.099 351.493 231.533 352.221 230.051C352.628 229.305 352.874 228.484 352.945 227.641V225.23C352.945 225.23 349.061 226.435 348.648 224.754C348.236 223.072 346.303 220.08 346.672 212.844C347.041 205.607 358.357 207.513 359.921 208.68C361.484 209.847 362.625 216.812 360.091 221.176Z"/><path fill="#2A7AE2" d="M365.368 281.94L365.004 283.022L370.271 285.032L371.033 285.323C371.033 285.323 380.257 267.082 380.742 264.781C381.228 262.48 377.388 241.914 371.363 232.076C370.817 232.363 370.289 232.681 369.781 233.029C367.669 234.458 364.096 237.397 363.232 241.604L370.256 255.558L372.659 260.321L368.164 273.637L365.368 281.94Z"/><path fill="url(#paint8_linear)" d="M365.737 283.303C365.737 283.303 361.877 286.804 361.596 287.59C361.314 288.376 361.596 290.382 361.596 290.382H362.324L362.489 292.574C362.489 292.574 362.824 294.108 363.606 294.05C364.327 294.069 365.044 294.179 365.737 294.379C365.737 294.379 368.465 294.16 369.188 293.45C369.912 292.74 370.305 289.396 370.251 288.467C370.198 287.538 370.251 284.794 370.251 284.794L365.737 283.303Z"/><path fill="#2A7AE2" d="M361.596 290.363C361.596 290.363 360.222 290.253 359.474 293.321C358.727 296.389 358.882 297.485 358.882 297.485H360.892C360.892 297.485 361.377 292.55 362.45 292.04L362.324 290.363H361.596Z"/><path fill="url(#paint9_linear)" d="M369.931 291.449C369.931 291.449 372.15 292.716 372.261 296.389H370.586C370.586 296.389 370.475 293.703 369.188 293.431L369.931 291.449Z"/><path fill="url(#paint10_linear)" d="M361.596 290.363C361.596 290.363 360.222 290.253 359.474 293.321C358.727 296.389 358.882 297.485 358.882 297.485H360.892C360.892 297.485 361.377 292.55 362.45 292.04L362.324 290.363H361.596Z"/><path fill="#2A7AE2" d="M351.532 299.762L352.716 308.275C352.793 308.821 353.081 309.316 353.521 309.658C353.96 309.999 354.517 310.161 355.076 310.11L379.193 307.88C379.531 307.851 379.856 307.744 380.144 307.569C380.431 307.393 380.673 307.154 380.849 306.87C381.115 306.442 381.22 305.937 381.145 305.441L380.004 297.666C379.927 297.135 379.649 296.653 379.225 296.314C378.801 295.976 378.263 295.807 377.718 295.841L353.551 297.328C353.154 297.35 352.771 297.481 352.445 297.704C352.113 297.93 351.852 298.242 351.69 298.606C351.529 298.969 351.474 299.37 351.532 299.762Z"/><path fill="url(#paint11_linear)" d="M351.532 299.762L352.716 308.275C352.793 308.821 353.081 309.316 353.521 309.658C353.96 309.999 354.517 310.161 355.076 310.11L379.193 307.88C379.531 307.851 379.856 307.744 380.144 307.569C380.431 307.393 380.673 307.154 380.849 306.87C381.115 306.442 381.22 305.937 381.145 305.441L380.004 297.666C379.927 297.135 379.649 296.653 379.225 296.314C378.801 295.976 378.263 295.807 377.718 295.841L353.551 297.328C353.154 297.35 352.771 297.481 352.445 297.704C352.113 297.93 351.852 298.242 351.69 298.606C351.529 298.969 351.474 299.37 351.532 299.762Z"/><path fill="url(#paint12_linear)" d="M351.532 299.762L352.716 308.275C352.793 308.821 353.081 309.316 353.521 309.658C353.96 309.999 354.517 310.161 355.076 310.11L379.193 307.88C379.531 307.851 379.856 307.744 380.144 307.569C380.431 307.393 380.673 307.154 380.849 306.87C381.115 306.442 381.22 305.937 381.145 305.441L380.004 297.666C379.927 297.135 379.649 296.653 379.225 296.314C378.801 295.976 378.263 295.807 377.718 295.841L353.551 297.328C353.154 297.35 352.771 297.481 352.445 297.704C352.113 297.93 351.852 298.242 351.69 298.606C351.529 298.969 351.474 299.37 351.532 299.762Z"/><path fill="#25233A" d="M331.734 338.722L333.278 335.058L328.365 332.138L326.287 336.902C326.287 336.902 319.394 337.121 316.268 340.08L314.933 342.6H331.676L331.734 338.722Z"/><path fill="#25233A" d="M377.393 334.787L374.878 331.609L371.057 334.044L372.669 337.379L370.193 342.033C370.193 342.033 368.363 341.961 366.339 343.638C364.314 345.315 364.994 345.758 364.994 345.758H375.033L380.786 337.379C380.786 337.379 378.713 334.911 377.393 334.787Z"/><path fill="#2A7AE2" d="M361.62 226.002C361.62 226.002 364.445 226.002 364.61 227.641L363.717 233.72L360.319 235.092L360.989 238.488L350.046 247.802L362.668 227.641C362.233 227.152 361.88 226.599 361.62 226.002V226.002Z"/><path fill="#2A7AE2" d="M351.187 228.136L352.945 226.655C352.996 227.403 352.912 228.155 352.697 228.875C352.352 229.775 350.711 243.529 350.993 246.268L348.983 236.459L350.711 233.558L350.042 231.476L351.187 228.136Z"/><path fill="url(#paint13_linear)" d="M361.62 226.002C361.62 226.002 364.445 226.002 364.61 227.641L363.717 233.72L360.319 235.092L360.989 238.488L350.046 247.802L362.668 227.641C362.233 227.152 361.88 226.599 361.62 226.002V226.002Z"/><path fill="url(#paint14_linear)" d="M351.187 228.136L352.945 226.655C352.996 227.403 352.912 228.155 352.697 228.875C352.352 229.775 350.711 243.529 350.993 246.268L348.983 236.459L350.711 233.558L350.042 231.476L351.187 228.136Z"/><path fill="url(#paint15_linear)" d="M351.187 228.136L352.945 226.655C352.996 227.403 352.912 228.155 352.697 228.875C352.352 229.775 350.711 243.529 350.993 246.268L348.983 236.459L350.711 233.558L350.042 231.476L351.187 228.136Z"/><path fill="#3F3D56" d="M355.008 231.109L355.789 233.138L354.284 234.706L354.644 240.446L350.988 246.263L351.255 240.489L353.391 234.487L352.959 232.733L353.891 231.09L355.008 231.109Z"/><path fill="url(#paint16_linear)" d="M311.345 243.224C310.976 243.895 311.651 244.629 312.107 245.244C312.544 245.826 312.822 246.508 312.913 247.225C311.286 246.899 309.731 246.293 308.32 245.434C307.626 245.015 306.786 244.515 306.063 244.881C305.81 245.048 305.604 245.274 305.465 245.54C305.325 245.806 305.257 246.102 305.267 246.401C305.25 247.195 305.397 247.984 305.699 248.721C306.001 249.458 306.452 250.127 307.024 250.689C308.176 251.801 309.512 252.713 310.976 253.385C312.112 253.957 313.554 254.467 314.583 253.723C315.005 253.371 315.337 252.928 315.554 252.428C316.039 251.522 316.957 250.398 316.855 249.369C316.687 248.414 316.311 247.506 315.753 246.706C314.981 245.496 312.981 243.224 311.345 243.224Z"/><path fill="#2A7AE2" d="M301.941 240.017L308.738 250.998C308.881 251.227 309.108 251.394 309.372 251.465C309.636 251.536 309.918 251.505 310.16 251.38L311.534 250.674C311.661 250.608 311.773 250.518 311.864 250.408C311.955 250.299 312.022 250.173 312.063 250.038C312.104 249.903 312.116 249.761 312.101 249.621C312.085 249.48 312.041 249.345 311.971 249.221L305.937 238.612C305.83 238.422 305.666 238.269 305.467 238.174C305.268 238.079 305.043 238.048 304.825 238.083L303.801 237.878C302.179 238.383 301.514 239.374 301.941 240.017Z"/><path fill="url(#paint17_linear)" d="M301.941 240.017L308.738 250.998C308.881 251.227 309.108 251.394 309.372 251.465C309.636 251.536 309.918 251.505 310.16 251.38L311.534 250.674C311.661 250.608 311.773 250.518 311.864 250.408C311.955 250.299 312.022 250.173 312.063 250.038C312.104 249.903 312.116 249.761 312.101 249.621C312.085 249.48 312.041 249.345 311.971 249.221L305.937 238.612C305.83 238.422 305.666 238.269 305.467 238.174C305.268 238.079 305.043 238.048 304.825 238.083L303.801 237.878C302.179 238.383 301.514 239.374 301.941 240.017Z"/><path fill="url(#paint18_linear)" d="M301.941 240.017L308.738 250.998C308.881 251.227 309.108 251.394 309.372 251.465C309.636 251.536 309.918 251.505 310.16 251.38L311.534 250.674C311.661 250.608 311.773 250.518 311.864 250.408C311.955 250.299 312.022 250.173 312.063 250.038C312.104 249.903 312.116 249.761 312.101 249.621C312.085 249.48 312.041 249.345 311.971 249.221L305.937 238.612C305.83 238.422 305.666 238.269 305.467 238.174C305.268 238.079 305.043 238.048 304.825 238.083L303.801 237.878C302.179 238.383 301.514 239.374 301.941 240.017Z"/><path fill="#fff" d="M303.267 239.422L310.097 250.379C310.24 250.61 310.467 250.779 310.733 250.851C310.998 250.922 311.281 250.892 311.524 250.765L312.893 250.055C313.021 249.989 313.133 249.899 313.224 249.79C313.316 249.681 313.383 249.555 313.424 249.419C313.465 249.284 313.478 249.142 313.461 249.001C313.445 248.861 313.401 248.725 313.33 248.602L307.282 238.012C307.173 237.823 307.009 237.671 306.81 237.577C306.611 237.482 306.388 237.449 306.17 237.483L304 237.826C303.826 237.856 303.663 237.927 303.524 238.032C303.385 238.138 303.275 238.276 303.202 238.433C303.13 238.591 303.098 238.763 303.109 238.936C303.121 239.108 303.175 239.275 303.267 239.422Z"/><path fill="#2A7AE2" d="M304.34 239.422L307.568 238.484L312.991 248.021L310.219 249.036L304.34 239.422Z"/><path fill="#2A7AE2" d="M127.173 349.203C125.461 347.746 123.93 346.098 122.61 344.291L127.809 340.899C128.846 342.276 130.035 343.536 131.353 344.658L127.173 349.203Z"/><path fill="#2A7AE2" d="M168.676 362.804C166.19 362.804 163.729 362.704 161.355 362.504L161.894 356.401C165.672 356.71 169.468 356.764 173.254 356.563L173.574 362.68C171.924 362.766 170.273 362.804 168.676 362.804ZM185.589 361.417L184.701 355.358C188.099 354.881 191.896 354.324 196.352 353.666L197.275 359.726C192.75 360.393 189.031 360.931 185.589 361.417V361.417ZM149.209 360.465C145.182 359.442 141.276 358.005 137.557 356.177L140.383 350.718C143.704 352.357 147.193 353.647 150.791 354.567L149.209 360.465ZM208.974 357.992L208.037 351.937L209.207 351.761L219.713 350.203L220.64 356.258L210.144 357.816L208.974 357.992ZM232.316 354.548L231.408 348.488C235.636 347.878 239.467 347.34 243.117 346.835L243.981 352.899C240.35 353.4 236.53 353.938 232.316 354.548V354.548ZM255.652 351.351L254.851 345.277C259.012 344.748 262.968 344.272 266.619 343.848L267.328 349.931C263.711 350.351 259.779 350.822 255.652 351.351V351.351ZM278.998 348.774L278.445 342.671C282.814 342.29 286.824 342.014 290.358 341.852L290.649 347.974C287.198 348.126 283.28 348.397 278.998 348.774V348.774Z"/><path fill="#2A7AE2" d="M307.66 348.459C305.818 348.16 303.958 347.972 302.092 347.897L302.403 341.78C304.534 341.869 306.658 342.087 308.762 342.433L307.66 348.459Z"/><path fill="#3F3D56" d="M346.294 209.076C346.36 208.044 346.789 207.068 347.507 206.313C349.58 204.007 353.085 203.592 356.207 203.84C359.328 204.088 362.484 204.84 365.562 204.254C366.105 204.154 366.829 204.093 367.052 204.588C367.382 205.322 366.168 205.731 365.683 206.374L367.421 206.565C367.26 207.294 366.823 207.936 366.198 208.361L366.989 208.709L365.6 211.091L366.295 211.61C364.639 212.086 363.683 213.754 363.047 215.326C362.411 216.898 361.838 218.627 360.45 219.613C360.306 218.764 359.984 217.952 359.503 217.232C359.761 217.129 359.988 216.964 360.165 216.753C360.342 216.543 360.462 216.292 360.515 216.024C360.569 215.756 360.553 215.479 360.47 215.219C360.387 214.958 360.239 214.722 360.04 214.532C359.841 214.341 359.596 214.202 359.328 214.128C359.061 214.054 358.778 214.046 358.507 214.105C358.235 214.165 357.983 214.289 357.773 214.469C357.563 214.648 357.402 214.875 357.304 215.131C356.289 213.425 354.877 211.863 353.056 211.048C351.668 210.436 350.098 210.35 348.648 210.805C347.09 211.319 346.226 211.115 346.294 209.076Z"/><defs><linearGradient id="paint0_linear" x1="334.599" x2="382.744" y1="245.658" y2="264.624" gradientUnits="userSpaceOnUse"><stop stop-opacity="0"/><stop offset=".99"/></linearGradient><linearGradient id="paint1_linear" x1="248" x2="248" y1="325" y2="397" gradientUnits="userSpaceOnUse"><stop stop-opacity="0"/><stop offset="1" stop-opacity=".75"/></linearGradient><linearGradient id="paint2_linear" x1="20463.6" x2="23014.9" y1="11361.4" y2="12515.5" gradientUnits="userSpaceOnUse"><stop stop-opacity="0"/><stop offset=".99"/></linearGradient><linearGradient id="paint3_linear" x1="351.5" x2="381.213" y1="298" y2="320.215" gradientUnits="userSpaceOnUse"><stop stop-opacity="0"/><stop offset=".849" stop-opacity=".6"/></linearGradient><linearGradient id="paint4_linear" x1="3098.47" x2="4466.53" y1="9651" y2="10505.5" gradientUnits="userSpaceOnUse"><stop stop-opacity="0"/><stop offset=".99"/></linearGradient><linearGradient id="paint5_linear" x1="352.187" x2="352.187" y1="300.429" y2="323.587" gradientUnits="userSpaceOnUse"><stop stop-opacity="0"/><stop offset="1" stop-opacity=".38"/></linearGradient><linearGradient id="paint6_linear" x1="355" x2="401.5" y1="263" y2="263" gradientUnits="userSpaceOnUse"><stop stop-opacity="0"/><stop offset="1"/></linearGradient><linearGradient id="paint7_linear" x1="362.659" x2="346.624" y1="219.328" y2="219.328" gradientUnits="userSpaceOnUse"><stop stop-color="#ECC4D7"/><stop offset=".42" stop-color="#EFD4D1"/><stop offset="1" stop-color="#F2EAC9"/></linearGradient><linearGradient id="paint8_linear" x1="-6603.67" x2="-6444.74" y1="4539.66" y2="4539.66" gradientUnits="userSpaceOnUse"><stop stop-color="#ECC4D7"/><stop offset=".42" stop-color="#EFD4D1"/><stop offset="1" stop-color="#F2EAC9"/></linearGradient><linearGradient id="paint9_linear" x1="2405.69" x2="2358.9" y1="2245.46" y2="2239.91" gradientUnits="userSpaceOnUse"><stop stop-opacity="0"/><stop offset=".99"/></linearGradient><linearGradient id="paint10_linear" x1="360.236" x2="364.933" y1="294.122" y2="293.114" gradientUnits="userSpaceOnUse"><stop offset=".19" stop-opacity="0"/><stop offset=".99"/></linearGradient><linearGradient id="paint11_linear" x1="19527.1" x2="20235.4" y1="6141.97" y2="7466.94" gradientUnits="userSpaceOnUse"><stop stop-opacity="0"/><stop offset=".99"/></linearGradient><linearGradient id="paint12_linear" x1="352" x2="384" y1="298" y2="308" gradientUnits="userSpaceOnUse"><stop stop-opacity="0"/><stop offset="1" stop-opacity=".44"/></linearGradient><linearGradient id="paint13_linear" x1="357.328" x2="357.328" y1="226.002" y2="247.802" gradientUnits="userSpaceOnUse"><stop stop-opacity="0"/><stop offset="1" stop-opacity=".5"/></linearGradient><linearGradient id="paint14_linear" x1="2825.84" x2="1673.92" y1="5236.85" y2="6613.22" gradientUnits="userSpaceOnUse"><stop stop-opacity="0"/><stop offset=".99"/></linearGradient><linearGradient id="paint15_linear" x1="350.971" x2="350.971" y1="226.655" y2="246.268" gradientUnits="userSpaceOnUse"><stop stop-opacity="0"/><stop offset="1" stop-opacity=".5"/></linearGradient><linearGradient id="paint16_linear" x1="6403.38" x2="6680.43" y1="3503.82" y2="3503.82" gradientUnits="userSpaceOnUse"><stop stop-color="#ECC4D7"/><stop offset=".42" stop-color="#EFD4D1"/><stop offset="1" stop-color="#F2EAC9"/></linearGradient><linearGradient id="paint17_linear" x1="5685.89" x2="5973.35" y1="4189.9" y2="4243.97" gradientUnits="userSpaceOnUse"><stop stop-opacity="0"/><stop offset=".99"/></linearGradient><linearGradient id="paint18_linear" x1="306.961" x2="306.961" y1="237.878" y2="251.502" gradientUnits="userSpaceOnUse"><stop stop-opacity="0"/><stop offset="1"/></linearGradient></defs></svg>