<svg xmlns="http://www.w3.org/2000/svg" width="500" height="500" fill="none" viewBox="0 0 500 500"><path fill="#2A7AE2" d="M445.537 349.466C442.34 362.97 437.735 376.34 429.597 387.539C417.218 404.574 397.859 414.972 378.453 422.95C362.455 429.518 345.643 434.891 328.362 435.181C304.896 435.576 282.13 426.605 258.654 425.988C230.89 425.265 204.016 436.242 176.319 437.824C147.104 439.385 118.277 430.533 94.8924 412.821C89.6436 408.825 84.7402 404.388 80.2347 399.558C70.3984 389.175 62.7801 376.871 57.8508 363.404C55.4444 356.587 53.6814 349.556 52.5852 342.405C50.747 330.965 50.2587 319.254 50.0672 307.621C49.4641 270.793 52.5373 231.311 75.036 202.277C82.9345 192.09 92.8818 183.718 102.724 175.432L157.075 129.719C171.292 117.758 185.577 105.758 201.421 96.0927C218.942 85.4145 238.099 77.7652 257.304 70.6078C265.825 67.4439 274.48 64.3282 283.518 63.3443C303.317 61.1836 322.828 69.4888 339.813 79.9645C355.744 89.7842 371.071 102.527 377.63 120.179C383.144 134.957 381.852 151.384 385.107 166.847C391.895 199.132 417.888 222.697 434.049 250.343C451.598 280.361 453.426 315.965 445.537 349.466Z" opacity=".18"/><path fill="#2A7AE2" d="M196.577 165.448C195.508 165.547 194.485 165.93 193.61 166.556C192.736 167.183 192.042 168.032 191.599 169.017C190.744 171.016 190.652 173.262 191.34 175.325C191.68 176.102 191.844 176.946 191.819 177.795C191.644 178.501 191.317 179.159 190.861 179.724C189.163 182.046 188.196 184.829 188.085 187.711C188.085 190.605 189.722 193.547 192.393 194.511C190.689 198.119 190.641 202.749 193.14 205.855C195.639 208.961 200.933 209.646 203.576 206.665C204.293 208.006 205.4 209.094 206.749 209.782C208.097 210.471 209.622 210.727 211.12 210.517C212.617 210.307 214.015 209.641 215.126 208.608C216.236 207.574 217.007 206.223 217.333 204.736C219.842 206.154 223.25 204.968 224.897 202.595C225.656 201.362 226.13 199.972 226.282 198.529C226.435 197.086 226.262 195.627 225.778 194.261C224.79 191.533 223.328 189.005 221.46 186.795C223.508 185.232 225.653 183.563 226.63 181.171C227.606 178.779 226.898 175.47 224.504 174.544C225.467 173.076 225.989 171.359 226.01 169.599C226.03 167.839 225.546 166.111 224.617 164.62C223.688 163.13 222.353 161.94 220.771 161.194C219.189 160.448 217.427 160.177 215.696 160.413C213.848 160.625 212.47 161.715 210.641 160.914C209.224 160.287 208.353 158.397 207.175 157.422C201.948 153.139 193.36 158.744 196.577 165.448Z"/><path fill="#2A7AE2" d="M334.346 267.715C333.314 291.861 323.067 314.673 305.745 331.391C288.422 348.109 265.361 357.441 241.373 357.441C217.386 357.441 194.325 348.109 177.002 331.391C159.679 314.673 149.433 291.861 148.401 267.715H334.346Z"/><path fill="url(#paint0_linear)" d="M296.318 267.715C296.318 267.715 282.647 341.305 267.998 343.977C253.35 346.649 296.318 349.678 317.946 316.476C336.758 287.606 334.346 267.715 334.346 267.715H296.318Z"/><path fill="url(#paint1_linear)" d="M174.117 268.227C174.117 268.227 181.67 337.746 226.639 344.662C271.608 351.578 283.968 346.051 283.968 346.051C283.968 346.051 256.203 373.716 218.396 363.337C180.589 352.958 159.536 312.28 159.536 312.28C159.536 312.28 147.358 278.268 148.382 267.715L174.117 268.227Z"/><path fill="url(#paint2_linear)" d="M204.973 274.786C205.165 274.516 205.443 274.043 205.778 273.619C206.678 272.394 207.587 272.442 208.161 273.889C209.119 276.233 210.229 278.606 209.531 281.239C209.216 282.024 208.811 282.768 208.324 283.458C206.859 286.12 203.461 287.963 204.878 291.831C204.941 292.012 204.965 292.204 204.949 292.396C204.932 292.587 204.875 292.773 204.782 292.94C203.576 294.724 204.351 296.065 205.423 297.609C206.917 299.76 207.97 302.229 209.502 304.361C211.694 307.37 212.958 311.113 216.271 313.226C217.879 314.248 219.631 315.087 221.144 316.226C221.952 316.856 222.512 317.755 222.723 318.762C223.087 321.425 223.087 324.135 223.365 326.817C223.585 328.968 224.093 331.109 224.322 333.261C224.539 334.475 224.513 335.722 224.246 336.926C223.627 338.683 223.61 340.598 224.198 342.366C224.715 343.948 225.155 345.559 225.624 347.189C227.022 351.617 233.532 354.906 238.157 353.508L233.236 351.009C234.126 350.045 234.815 349.34 235.591 348.521L233.552 347.286L235.466 346.128C235.256 345.212 235.045 344.267 234.796 343.109L237.668 343.572C237.774 342.791 237.869 342.125 237.984 341.315C239.813 341.132 241.651 340.977 243.729 340.784C243.518 339.55 243.317 338.402 243.106 337.254C246.227 338.151 248.123 337.399 250.181 334.727C251.101 333.699 252.086 332.732 253.13 331.833C254.48 330.473 256.002 329.219 256.002 327.01C256.002 326.672 256.797 326.219 257.295 325.997C259.775 324.955 261.929 323.045 264.954 323.296C265.404 323.296 266.084 322.659 266.361 322.139C267.788 319.37 269.167 316.554 270.497 313.737C270.704 313.193 270.754 312.601 270.641 312.03C270.449 310.602 270.134 309.194 272.058 308.663C272.345 308.576 272.537 308.084 272.766 307.776C273.925 306.126 275.045 304.438 276.27 302.846C277.228 301.631 277.458 298.197 276.51 297.059C276.318 296.837 275.935 296.567 275.744 296.615C273.752 297.175 272.651 295.757 271.474 294.686C271.021 294.239 270.462 293.915 269.851 293.747C269.239 293.578 268.595 293.569 267.979 293.721C266.965 293.914 265.816 293.268 264.753 293.384C262.57 293.606 261.354 292.13 259.822 291.02C258.635 290.172 257.075 289.419 255.734 291.184C253.82 289.979 252.374 288.522 252.144 286.226C252.099 284.838 251.598 283.504 250.72 282.434C249.841 281.364 248.635 280.618 247.29 280.313C246.084 280.002 244.831 279.92 243.595 280.072C243.011 280.206 242.4 280.165 241.839 279.954C241.278 279.744 240.79 279.372 240.435 278.886C239.248 277.362 238.204 275.587 235.993 275.182C235.639 275.182 235.179 274.487 235.103 274.053C235.046 273.532 234.832 273.041 234.489 272.646C234.147 272.251 233.693 271.971 233.188 271.844C232.666 271.679 232.131 271.559 231.589 271.487C230.954 271.396 230.309 271.396 229.674 271.487C228.425 271.672 227.152 271.596 225.933 271.264C224.714 270.932 223.576 270.352 222.589 269.558C219.468 267.146 214.289 268.4 212.058 271.67L211.962 271.805C211.493 272.481 211.005 273.166 210.488 273.889C209.847 273.321 209.159 272.811 208.43 272.365C207.415 271.854 206.409 271.4 205.261 272.413C204.911 272.569 204.529 272.635 204.147 272.605C203.766 272.575 203.399 272.449 203.078 272.24C202.905 272.095 204.342 267.889 204.198 267.744H197.822C197.908 268.024 200.694 272.384 200.78 272.567L204.973 274.786Z" opacity=".5"/><path fill="#FAAF90" d="M301.613 339.916C299.841 343.678 296.826 346.668 293.752 349.447C286.483 356.232 278.513 362.214 269.98 367.292C264.867 370.299 259.485 372.818 253.906 374.816C228.64 383.748 200.809 380.304 174.595 374.816C161.45 372.067 147.865 368.826 134.749 371.69C126.132 373.571 118.31 377.96 110.622 382.301L80.1964 399.51C75.0015 393.978 70.3967 387.913 66.4578 381.414C62.9929 375.717 60.1062 369.684 57.8413 363.404C55.4349 356.587 53.6718 349.556 52.5756 342.405C57.7264 339.945 66.1706 340.678 70.9288 339.772C81.2974 337.784 91.4458 334.717 101.565 331.659L129.655 323.151C134.94 321.55 140.187 319.949 145.347 317.894C150.076 315.965 154.662 313.698 159.555 312.28C167.357 310.013 175.601 310.052 183.71 310.091L224.025 310.332C224.797 310.265 225.571 310.411 226.266 310.756C228.075 311.894 227.223 314.74 225.892 316.409C220.32 323.47 210.756 325.775 201.871 326.682C199.239 326.952 196.52 327.164 194.164 328.36C191.809 329.556 189.856 332.045 190.172 334.688C190.622 338.682 195.332 340.399 199.239 341.199C210.676 343.495 222.203 345.254 233.82 346.476C240.301 347.141 246.869 347.614 253.312 346.64C270.354 344.074 284.561 331.746 301.383 328.003C303.709 331.447 303.384 336.164 301.613 339.916Z"/><path fill="#3E3E54" d="M241.086 274.188C292.349 274.188 333.905 271.519 333.905 268.227C333.905 264.934 292.349 262.265 241.086 262.265C189.824 262.265 148.267 264.934 148.267 268.227C148.267 271.519 189.824 274.188 241.086 274.188Z"/><path fill="#3E3E54" d="M213.944 254.327C218.912 253.241 223.957 252.554 229.033 252.272C235.926 251.761 242.915 251.433 249.693 252.803C254.171 253.855 258.572 255.211 262.867 256.864C281.004 263.197 299.792 267.448 318.874 269.539C282.953 270.773 247.012 269.539 211.129 267.773C206.215 267.523 201.303 267.262 196.395 266.992C192.642 266.789 186.17 267.629 182.934 265.97C185.06 262.545 193.044 261.716 196.615 260.356C202.341 258.195 207.97 255.764 213.944 254.327Z"/><path fill="#3E3E54" d="M218.827 255.783C218.827 255.783 216.51 202.865 205.423 184.19L208.765 182.637C208.765 182.637 224.475 255.523 224.734 256.304C224.992 257.086 222.685 259.41 218.827 255.783Z"/><path fill="#2A7AE2" d="M252.01 165.757C250.976 165.468 249.885 165.46 248.847 165.735C247.81 166.009 246.863 166.556 246.103 167.319C244.606 168.879 243.73 170.939 243.642 173.107C243.689 173.958 243.545 174.808 243.221 175.596C242.813 176.204 242.277 176.715 241.651 177.091C239.247 178.66 237.363 180.917 236.242 183.573C235.284 186.264 235.725 189.611 237.889 191.473C235.016 194.232 233.351 198.544 234.586 202.344C235.821 206.145 240.55 208.672 244.064 206.82C244.263 208.331 244.915 209.744 245.935 210.87C246.954 211.996 248.291 212.78 249.765 213.119C251.24 213.457 252.782 213.332 254.185 212.761C255.587 212.191 256.783 211.201 257.611 209.926C259.459 212.145 263.068 212.251 265.442 210.62C266.587 209.738 267.519 208.606 268.168 207.31C268.818 206.014 269.169 204.587 269.195 203.135C269.228 200.235 268.752 197.351 267.788 194.618C270.248 193.894 272.843 193.094 274.595 191.203C276.347 189.312 276.854 185.975 274.93 184.248C276.359 183.222 277.463 181.801 278.108 180.158C278.754 178.514 278.914 176.717 278.569 174.984C278.223 173.25 277.388 171.655 276.163 170.389C274.938 169.123 273.376 168.241 271.665 167.85C269.865 167.387 268.19 167.917 266.764 166.519C265.663 165.429 265.519 163.345 264.753 162.014C261.364 156.168 251.369 158.339 252.01 165.757Z"/><path fill="#3E3E54" d="M253.657 209.762C253.59 207.987 253.542 206.096 254.442 204.572C255.008 203.72 255.71 202.967 256.519 202.344C257.833 201.151 259.275 200.109 260.818 199.238C262.378 198.37 264.174 198.031 265.94 198.273C263.977 200.087 261.153 200.695 259.104 202.373C256.757 204.395 254.942 206.97 253.82 209.868C252.259 215.067 252.182 221.347 251.378 226.739C250.574 232.131 249.77 237.687 248.956 243.137C248.113 248.925 246.639 254.915 246.409 260.741C246.409 261.561 243.384 262.921 241.048 258.147C243.92 249.465 246.294 240.62 248.458 231.755C250.287 224.202 251.905 216.572 253.025 208.874C253.532 205.402 254.394 201.447 254.212 197.936C254.011 194.222 250.124 190.585 247.022 188.994C246.811 188.878 246.591 188.772 246.371 188.676C246.045 188.907 246.294 189.428 246.562 189.737C248.918 192.38 252.087 194.492 253.322 197.82C253.647 198.698 253.82 199.624 254.116 200.511C253.925 199.942 254.614 198.283 254.528 197.463C254.372 196.37 254.289 195.268 254.279 194.164C254.319 191.58 254.13 188.998 253.714 186.447L257.391 186.187C257.391 186.187 255.84 196.605 253.925 209.656"/><path fill="#2A7AE2" d="M293.542 172.875C292.508 172.586 291.416 172.578 290.379 172.852C289.341 173.127 288.394 173.674 287.635 174.438C286.138 175.998 285.262 178.058 285.174 180.226C285.217 181.076 285.073 181.926 284.753 182.714C284.345 183.323 283.809 183.833 283.183 184.209C280.78 185.776 278.896 188.03 277.774 190.682C276.816 193.383 277.247 196.73 279.42 198.592C276.548 201.351 274.882 205.662 276.117 209.463C277.352 213.263 282.082 215.791 285.595 213.939C285.794 215.449 286.447 216.863 287.466 217.988C288.486 219.114 289.822 219.899 291.297 220.237C292.772 220.575 294.314 220.451 295.717 219.88C297.119 219.309 298.315 218.32 299.143 217.045C300.99 219.263 304.6 219.369 306.974 217.739C308.115 216.854 309.045 215.722 309.694 214.426C310.344 213.131 310.697 211.705 310.727 210.254C310.757 207.353 310.277 204.469 309.31 201.736C311.78 201.013 314.365 200.212 316.127 198.322C317.888 196.431 318.377 193.093 316.462 191.367C317.891 190.341 318.994 188.92 319.64 187.276C320.285 185.633 320.445 183.836 320.1 182.102C319.755 180.369 318.92 178.773 317.695 177.508C316.47 176.242 314.908 175.36 313.197 174.969C311.397 174.506 309.722 175.036 308.295 173.637C307.185 172.547 307.041 170.464 306.285 169.133C302.896 163.297 292.9 165.458 293.542 172.875Z"/><path fill="#3E3E54" d="M295.188 216.881C295.121 215.106 295.074 213.215 295.964 211.691C296.534 210.838 297.239 210.086 298.051 209.463C299.365 208.27 300.807 207.228 302.35 206.357C303.909 205.488 305.706 205.149 307.472 205.392C305.509 207.206 302.685 207.813 300.636 209.492C298.289 211.516 296.471 214.09 295.342 216.987C293.791 222.186 293.714 228.466 292.91 233.858C292.106 239.25 291.292 244.806 290.488 250.256C289.645 256.044 288.171 262.034 287.931 267.86C287.931 268.68 284.916 270.04 282.58 265.265C285.452 256.584 287.826 247.738 289.98 238.874C291.818 231.321 293.436 223.691 294.557 215.993C295.054 212.521 295.926 208.566 295.734 205.055C295.543 201.341 291.646 197.704 288.554 196.113C288.343 195.997 288.123 195.891 287.903 195.794C287.577 196.026 287.817 196.547 288.094 196.855C290.449 199.498 293.618 201.611 294.853 204.939C295.179 205.817 295.351 206.743 295.648 207.63C295.457 207.061 296.146 205.402 296.05 204.582C295.904 203.488 295.82 202.387 295.801 201.283C295.851 198.699 295.662 196.115 295.236 193.566L298.922 193.306C298.922 193.306 297.371 203.723 295.437 216.775"/><path fill="#2A7AE2" d="M265.758 213.784C265.181 213.623 264.572 213.619 263.993 213.773C263.414 213.927 262.887 214.234 262.465 214.662C261.625 215.535 261.134 216.689 261.086 217.903C261.11 218.378 261.028 218.853 260.847 219.292C260.621 219.633 260.323 219.919 259.976 220.131C258.632 221.007 257.579 222.266 256.95 223.749C256.66 224.498 256.596 225.317 256.766 226.103C256.936 226.89 257.334 227.607 257.908 228.167C257.076 228.909 256.465 229.869 256.14 230.939C255.816 232.01 255.791 233.15 256.069 234.234C256.759 236.356 259.392 237.774 261.354 236.742C261.468 237.585 261.835 238.372 262.406 238.999C262.976 239.626 263.723 240.063 264.547 240.25C265.37 240.438 266.231 240.368 267.013 240.05C267.796 239.731 268.464 239.18 268.927 238.469C269.491 239.047 270.241 239.405 271.043 239.477C271.844 239.55 272.645 239.332 273.303 238.864C273.939 238.37 274.458 237.738 274.821 237.015C275.184 236.293 275.382 235.497 275.399 234.687C275.415 233.065 275.149 231.452 274.614 229.922C276.039 229.636 277.362 228.97 278.444 227.993C279.401 226.942 279.698 225.099 278.635 224.135C279.423 223.557 280.031 222.763 280.384 221.848C280.738 220.933 280.824 219.934 280.632 218.971C280.439 218.009 279.976 217.122 279.298 216.416C278.62 215.71 277.755 215.215 276.807 214.99C275.801 214.73 274.892 214.99 274.068 214.247C273.446 213.64 273.37 212.472 272.939 211.73C270.986 208.431 265.414 209.646 265.758 213.784Z"/><path fill="#3E3E54" d="M266.677 238.372C266.549 237.385 266.701 236.381 267.118 235.478C267.429 234.999 267.821 234.578 268.276 234.234C269.008 233.564 269.814 232.981 270.679 232.498C271.553 232.009 272.561 231.819 273.551 231.957C272.46 232.922 270.89 233.308 269.722 234.244C268.412 235.376 267.397 236.813 266.763 238.43C265.902 241.324 265.854 244.845 265.404 247.854L264.054 257.028C263.585 260.249 262.762 263.616 262.628 266.867C262.628 267.33 260.942 268.082 259.64 265.42C261.22 260.597 262.57 255.629 263.776 250.671C264.801 246.455 265.691 242.192 266.323 237.89C266.738 235.881 266.959 233.836 266.984 231.784C266.878 229.71 264.705 227.675 262.972 226.787L262.608 226.604C262.426 226.739 262.608 227.028 262.714 227.202C264.035 228.678 265.806 229.855 266.495 231.716C266.677 232.208 266.773 232.681 266.936 233.221C266.83 232.903 267.213 231.977 267.166 231.523C267.079 230.91 267.031 230.291 267.022 229.671C267.051 228.224 266.945 226.777 266.706 225.35L268.764 225.205L266.85 238.314"/><path fill="#2A7AE2" d="M316.826 214.614C316.252 214.354 315.62 214.252 314.994 214.318C314.369 214.384 313.772 214.616 313.264 214.99C312.26 215.766 311.578 216.89 311.349 218.144C311.297 218.638 311.14 219.115 310.89 219.543C310.603 219.865 310.246 220.116 309.846 220.276C308.315 220.974 307.025 222.116 306.141 223.556C305.718 224.282 305.518 225.119 305.566 225.96C305.614 226.801 305.907 227.609 306.409 228.282C305.428 228.921 304.641 229.82 304.134 230.88C303.627 231.94 303.421 233.121 303.537 234.292C303.929 236.607 306.409 238.488 308.64 237.726C308.624 238.619 308.88 239.495 309.373 240.237C309.866 240.98 310.572 241.553 311.397 241.879C312.222 242.205 313.126 242.27 313.989 242.064C314.851 241.858 315.631 241.391 316.222 240.726C316.72 241.413 317.443 241.901 318.263 242.102C319.083 242.303 319.948 242.205 320.703 241.825C321.45 241.417 322.096 240.844 322.594 240.149C323.091 239.455 323.426 238.656 323.575 237.813C323.842 236.133 323.816 234.419 323.499 232.748C325.009 232.68 326.474 232.204 327.74 231.369C328.927 230.404 329.501 228.543 328.544 227.376C329.454 226.902 330.21 226.175 330.721 225.281C331.233 224.387 331.479 223.364 331.429 222.333C331.38 221.302 331.037 220.308 330.443 219.468C329.848 218.627 329.026 217.977 328.075 217.594C327.117 217.17 326.055 217.334 325.356 216.389C324.801 215.656 324.906 214.459 324.58 213.601C323.077 209.878 317.113 210.254 316.826 214.614Z"/><path fill="#3E3E54" d="M313.944 240.263C313.969 239.232 314.281 238.23 314.844 237.369C315.247 236.922 315.723 236.547 316.251 236.26C317.115 235.685 318.04 235.209 319.008 234.842C319.988 234.475 321.06 234.437 322.062 234.736C320.77 235.613 319.095 235.7 317.745 236.51C316.206 237.467 314.926 238.793 314.02 240.369C312.661 243.263 312.106 246.87 311.148 249.928L308.276 259.237C307.319 262.507 305.902 265.863 305.26 269.22C305.174 269.693 303.345 270.185 302.388 267.291C304.791 262.468 306.964 257.597 308.985 252.639C310.708 248.423 312.307 244.15 313.628 239.78C314.372 237.758 314.92 235.668 315.265 233.539C315.476 231.379 313.542 228.919 311.885 227.752L311.531 227.511C311.321 227.617 311.416 227.945 311.531 228.147C312.67 229.884 314.317 231.388 314.748 233.433C314.853 233.964 314.872 234.523 314.968 235.064C314.911 234.716 315.456 233.81 315.476 233.327C315.482 232.682 315.53 232.037 315.619 231.398C315.868 229.9 315.983 228.383 315.964 226.864L318.118 227.038L314.059 240.34"/><path fill="#2A7AE2" d="M164.141 214.614C163.476 214.673 162.839 214.907 162.291 215.291C161.744 215.675 161.305 216.196 161.019 216.803C160.472 218.041 160.397 219.439 160.809 220.729C161.016 221.22 161.114 221.75 161.096 222.282C160.984 222.726 160.778 223.141 160.493 223.498C159.421 224.935 158.797 226.661 158.703 228.456C158.672 229.355 158.907 230.242 159.377 231.006C159.848 231.77 160.532 232.377 161.345 232.748C160.753 233.847 160.475 235.09 160.543 236.338C160.61 237.587 161.021 238.792 161.728 239.819C163.26 241.748 166.515 242.24 168.229 240.398C168.661 241.251 169.343 241.949 170.184 242.396C171.024 242.843 171.981 243.018 172.924 242.897C173.867 242.775 174.75 242.364 175.451 241.718C176.153 241.072 176.64 240.224 176.845 239.288C177.655 239.678 178.576 239.763 179.443 239.53C180.31 239.296 181.065 238.759 181.575 238.015C182.056 237.25 182.36 236.385 182.466 235.486C182.572 234.586 182.477 233.674 182.187 232.816C181.589 231.111 180.694 229.527 179.545 228.138C180.919 227.292 182.046 226.094 182.81 224.665C183.432 223.179 183.011 221.115 181.527 220.527C182.135 219.618 182.47 218.552 182.494 217.456C182.518 216.36 182.228 215.28 181.661 214.345C181.093 213.411 180.27 212.66 179.291 212.182C178.312 211.705 177.217 211.521 176.137 211.652C174.988 211.768 174.117 212.443 172.987 211.923C172.106 211.527 171.58 210.341 170.842 209.723C167.578 206.984 162.188 210.408 164.141 214.614Z"/><path fill="#3E3E54" d="M174.461 240.021C173.945 239.035 173.722 237.92 173.82 236.809C173.968 236.189 174.221 235.598 174.567 235.063C175.078 234.078 175.702 233.155 176.424 232.314C177.15 231.47 178.127 230.885 179.21 230.646C178.444 232.121 176.941 233.086 176.079 234.504C175.136 236.194 174.62 238.092 174.576 240.031C174.768 243.407 176.06 247.102 176.74 250.43C177.42 253.758 178.119 257.182 178.817 260.568C179.545 264.127 179.957 267.966 181.058 271.429C181.22 271.911 179.756 273.358 177.372 271.063C177.19 265.371 176.721 259.671 176.098 254.018C175.562 249.195 174.892 244.372 173.906 239.636C173.572 237.367 173.027 235.136 172.278 232.97C171.378 230.848 168.324 229.556 166.17 229.285H165.72C165.577 229.488 165.835 229.739 166.055 229.864C167.97 230.896 170.306 231.456 171.733 233.134C172.106 233.578 172.412 234.099 172.767 234.543C172.537 234.253 172.585 233.125 172.365 232.671C172.04 232.047 171.756 231.403 171.512 230.742C170.987 229.216 170.327 227.741 169.54 226.334L171.637 225.369C171.637 225.369 172.949 231.803 174.586 239.838"/><path fill="#3E3E54" d="M214.911 199.556C215.869 197.897 217.295 196.46 218.023 194.656C218.657 192.751 218.908 190.738 218.76 188.734C219.085 190.56 219.21 192.417 219.133 194.27C219.859 194.042 220.628 193.991 221.378 194.122C222.127 194.253 222.834 194.562 223.441 195.023C221.527 195.196 219.535 195.399 217.975 196.518C216.06 197.897 215.237 200.376 214.969 202.73C214.7 205.084 214.854 207.495 214.337 209.82C214.337 208.084 213.475 206.424 213.284 204.765C213.092 203.106 214.059 200.974 214.911 199.556Z"/><path fill="#3E3E54" d="M204.418 190.962C203.997 190.074 203.662 189.032 202.79 188.579L205.959 194.695L200.991 196.286C200.56 196.421 200.033 196.769 200.206 197.183C201.575 197.309 202.896 196.701 204.255 196.508C205.768 196.33 207.297 196.649 208.615 197.417C209.933 198.185 210.969 199.362 211.57 200.772C211.445 200.463 211.857 199.315 211.857 198.91C211.9 198.322 211.787 197.733 211.531 197.203C211.101 196.576 210.076 196.306 209.444 195.91C207.337 194.774 205.594 193.058 204.418 190.962V190.962Z"/><path fill="#2A7AE2" d="M189.569 217.951C188.907 218.013 188.273 218.249 187.732 218.637C187.19 219.025 186.761 219.551 186.486 220.16C185.953 221.401 185.898 222.798 186.333 224.077C186.54 224.56 186.638 225.084 186.62 225.61C186.517 226.054 186.317 226.469 186.036 226.826C184.986 228.269 184.389 229.996 184.322 231.784C184.303 232.674 184.547 233.55 185.022 234.3C185.498 235.051 186.184 235.642 186.994 235.999C186.42 237.1 186.159 238.34 186.241 239.58C186.322 240.821 186.741 242.015 187.453 243.031C188.994 244.96 192.288 245.375 193.915 243.523C194.361 244.354 195.047 245.028 195.883 245.455C196.719 245.881 197.665 246.04 198.593 245.91C199.521 245.78 200.388 245.367 201.076 244.726C201.765 244.086 202.243 243.249 202.446 242.327C203.257 242.702 204.175 242.774 205.034 242.53C205.894 242.286 206.639 241.742 207.137 240.996C207.605 240.231 207.897 239.371 207.991 238.478C208.086 237.585 207.98 236.682 207.683 235.835C207.068 234.144 206.16 232.577 205.002 231.205C206.357 230.349 207.463 229.148 208.209 227.723C208.813 226.237 208.372 224.192 206.888 223.614C207.484 222.703 207.807 221.64 207.819 220.55C207.831 219.459 207.532 218.389 206.956 217.465C206.381 216.542 205.554 215.805 204.574 215.342C203.595 214.879 202.503 214.71 201.431 214.855C200.282 214.99 199.43 215.665 198.3 215.173C197.42 214.788 196.883 213.611 196.146 213.003C192.901 210.331 187.578 213.794 189.569 217.951Z"/><path fill="#3E3E54" d="M203.365 273.937C203.365 273.937 201.929 241.14 195.064 229.565L197.142 228.601C197.142 228.601 206.869 273.773 207.013 274.226C207.156 274.68 205.758 276.156 203.365 273.937Z"/><path fill="#3E3E54" d="M200.933 239.086C201.644 238.125 202.284 237.113 202.848 236.057C203.238 234.874 203.391 233.625 203.298 232.382C203.499 233.515 203.576 234.666 203.528 235.816C203.978 235.675 204.454 235.644 204.918 235.725C205.383 235.805 205.821 235.995 206.199 236.279C205.004 236.293 203.835 236.626 202.81 237.244C202.253 237.724 201.801 238.314 201.48 238.978C201.158 239.642 200.976 240.364 200.943 241.102C200.892 242.574 200.765 244.042 200.56 245.501C200.403 244.444 200.185 243.397 199.909 242.366C199.913 241.193 200.27 240.049 200.933 239.086V239.086Z"/><path fill="#3E3E54" d="M194.433 233.761C194.164 233.212 193.963 232.556 193.418 232.286L195.332 236.076L192.259 237.041C191.991 237.128 191.656 237.35 191.771 237.6C192.62 237.557 193.461 237.418 194.279 237.186C195.218 237.072 196.168 237.268 196.986 237.745C197.804 238.221 198.447 238.953 198.817 239.829C198.741 239.636 198.99 238.922 198.99 238.671C199.02 238.306 198.95 237.939 198.789 237.61C198.521 237.224 197.889 237.06 197.496 236.81C196.214 236.1 195.153 235.045 194.433 233.761Z"/><path fill="#2A7AE2" d="M279.334 127.635C292.13 127.635 302.503 117.184 302.503 104.292C302.503 91.3996 292.13 80.9484 279.334 80.9484C266.538 80.9484 256.165 91.3996 256.165 104.292C256.165 117.184 266.538 127.635 279.334 127.635Z"/><path fill="url(#paint3_linear)" d="M244.485 89.2826C248.121 95.1515 249.934 101.981 249.692 108.895C249.449 115.809 247.163 122.493 243.125 128.089C248.745 128.475 254.423 129.661 259.286 132.536C264.15 135.41 268.113 140.137 269.157 145.722C273.495 139.712 279.956 135.606 287.209 134.252C294.461 132.897 301.953 134.395 308.142 138.439C307.185 130.278 302.551 122.176 304.829 114.276C306.514 108.488 311.531 104.35 316.318 100.636C312.024 97.6179 308.636 93.4672 306.527 88.6386C304.418 83.81 303.668 78.4898 304.36 73.2605C299.669 77.225 292.919 78.0835 286.984 76.6077C282.015 75.3344 278.903 72.0451 274.537 69.9037C271.665 68.505 272.402 68.6015 270.382 71.148C268.956 72.9325 267.884 74.9486 266.371 76.6849C263.507 79.9726 260.119 82.7566 256.347 84.9226C255.227 85.5592 245.308 90.5655 244.485 89.2826Z"/><path fill="url(#paint4_linear)" d="M270.574 362.131L269.98 367.292C264.867 370.299 259.485 372.818 253.906 374.816C228.64 383.748 200.809 380.304 174.595 374.816C161.45 372.067 147.865 368.825 134.749 371.69C126.132 373.571 118.31 377.96 110.622 382.301L80.1964 399.51C75.0015 393.978 70.3967 387.913 66.4578 381.414C72.6809 378.173 112.882 357.626 129.493 359.536C147.511 361.61 196.941 370.427 208.784 369.916C220.627 369.404 270.574 362.131 270.574 362.131Z"/><path fill="url(#paint5_linear)" d="M270.574 362.131L269.98 367.292C264.867 370.299 259.485 372.818 253.906 374.816C228.64 383.748 200.809 380.304 174.595 374.816C161.45 372.067 147.865 368.825 134.749 371.69C126.132 373.571 118.31 377.96 110.622 382.301L80.1964 399.51C75.0015 393.978 70.3967 387.913 66.4578 381.414C72.6809 378.173 112.882 357.626 129.493 359.536C147.511 361.61 196.941 370.427 208.784 369.916C220.627 369.404 270.574 362.131 270.574 362.131Z"/><defs><linearGradient id="paint0_linear" x1="268.573" x2="413.664" y1="292.38" y2="356.958" gradientUnits="userSpaceOnUse"><stop offset=".02" stop-color="#fff" stop-opacity="0"/><stop offset=".32" stop-color="#fff" stop-opacity=".39"/><stop offset=".68" stop-color="#fff" stop-opacity=".68"/><stop offset="1" stop-color="#fff"/></linearGradient><linearGradient id="paint1_linear" x1="126.879" x2="240.754" y1="373.388" y2="290.158" gradientUnits="userSpaceOnUse"><stop offset=".01"/><stop offset=".13" stop-opacity=".69"/><stop offset="1" stop-opacity="0"/></linearGradient><linearGradient id="paint2_linear" x1="16596.5" x2="15592" y1="12233.3" y2="40841.3" gradientUnits="userSpaceOnUse"><stop offset=".01"/><stop offset=".13" stop-opacity=".69"/><stop offset="1" stop-opacity="0"/></linearGradient><linearGradient id="paint3_linear" x1="279.722" x2="279.722" y1="69.003" y2="145.722" gradientUnits="userSpaceOnUse"><stop stop-color="#fff"/><stop offset="1" stop-color="#fff" stop-opacity="0"/></linearGradient><linearGradient id="paint4_linear" x1="27681.3" x2="27630.5" y1="18318.7" y2="9448.07" gradientUnits="userSpaceOnUse"><stop offset=".01"/><stop offset=".13" stop-opacity=".69"/><stop offset="1" stop-opacity="0"/></linearGradient><linearGradient id="paint5_linear" x1="159.5" x2="159.5" y1="351.5" y2="411" gradientUnits="userSpaceOnUse"><stop stop-opacity="0"/><stop offset="1" stop-opacity=".5"/></linearGradient></defs></svg>