<svg width="384" height="512" viewBox="0 0 384 512" fill="none" xmlns="http://www.w3.org/2000/svg">
<path d="M172.268 501.67C26.97 291.031 0 269.413 0 192C0 85.961 85.961 0 192 0C298.039 0 384 85.961 384 192C384 269.413 357.03 291.031 211.732 501.67C202.197 515.444 181.802 515.443 172.268 501.67Z" fill="white"/>
<circle cx="192" cy="192" r="92" fill="#0033CC"/>
<path fill-rule="evenodd" clip-rule="evenodd" d="M105.303 405.621L105.3 405.617C18.2077 281.545 0 255.606 0 192C0 85.961 85.961 0 192 0C298.039 0 384 85.961 384 192C384 228.712 377.935 252.876 356.06 290.602L317 259.431C327.844 239.37 334 216.404 334 192C334 113.576 270.424 50 192 50C113.576 50 50 113.576 50 192C50 270.424 113.576 334 192 334C227.983 334 260.841 320.616 285.865 298.554L329.078 333.039C315.61 353.035 299.032 376.652 278.7 405.617C259.796 432.548 237.646 464.103 211.732 501.67C202.197 515.444 181.802 515.443 172.268 501.67C146.356 464.105 124.207 432.551 105.303 405.621Z" fill="#2A7AE2"/>
</svg>
