<svg xmlns="http://www.w3.org/2000/svg" width="1585" height="512" fill="none" viewBox="0 0 1585 512"><g clip-path="url(#clip0)"><path fill="#03C" fill-rule="evenodd" d="M466.398 430H1535C1562.61 430 1585 407.614 1585 380V80C1585 52.3858 1562.61 30 1535 30H510.382C554.942 69.7419 583 127.594 583 192C583 263.298 562.758 292.72 466.398 430ZM221.618 30L50 30C22.3858 30 0 52.3858 0 80V380C0 407.614 22.3858 430 50 430H265.602C169.242 292.72 149 263.298 149 192C149 127.594 177.058 69.7419 221.618 30ZM456.417 192C456.417 241.936 415.936 282.417 366 282.417C316.064 282.417 275.583 241.936 275.583 192C275.583 142.064 316.064 101.583 366 101.583C415.936 101.583 456.417 142.064 456.417 192Z" clip-rule="evenodd"/><path fill="#fff" d="M346.268 501.67C200.97 291.031 174 269.413 174 192C174 85.961 259.961 0 366 0C472.039 0 558 85.961 558 192C558 269.413 531.03 291.031 385.732 501.67C376.197 515.444 355.802 515.443 346.268 501.67Z"/><circle cx="366" cy="192" r="92" fill="#03C"/><path fill="#2A7AE2" fill-rule="evenodd" d="M279.303 405.621L279.3 405.617C192.208 281.545 174 255.606 174 192C174 85.961 259.961 0 366 0C472.039 0 558 85.961 558 192C558 228.712 551.935 252.876 530.06 290.602L491 259.431C501.844 239.37 508 216.404 508 192C508 113.576 444.424 50 366 50C287.576 50 224 113.576 224 192C224 270.424 287.576 334 366 334C401.983 334 434.841 320.616 459.865 298.554L503.078 333.039C489.61 353.035 473.032 376.652 452.7 405.617C433.796 432.548 411.646 464.103 385.732 501.67C376.197 515.444 355.802 515.443 346.268 501.67C320.356 464.105 298.207 432.551 279.303 405.621Z" clip-rule="evenodd"/><path fill="#fff" d="M787.145 178.056V333H744.521V314.568C738.569 321.288 731.465 326.472 723.209 330.12C714.953 333.576 706.025 335.304 696.425 335.304C676.073 335.304 659.945 329.448 648.041 317.736C636.137 306.024 630.185 288.648 630.185 265.608V178.056H675.113V258.984C675.113 283.944 685.577 296.424 706.505 296.424C717.257 296.424 725.897 292.968 732.425 286.056C738.953 278.952 742.217 268.488 742.217 254.664V178.056H787.145ZM980.543 256.104C980.543 256.68 980.255 260.712 979.679 268.2H862.463C864.575 277.8 869.567 285.384 877.439 290.952C885.311 296.52 895.103 299.304 906.815 299.304C914.879 299.304 921.983 298.152 928.127 295.848C934.463 293.352 940.319 289.512 945.695 284.328L969.599 310.248C955.007 326.952 933.695 335.304 905.663 335.304C888.191 335.304 872.735 331.944 859.295 325.224C845.855 318.312 835.487 308.808 828.191 296.712C820.895 284.616 817.247 270.888 817.247 255.528C817.247 240.36 820.799 226.728 827.903 214.632C835.199 202.344 845.087 192.84 857.567 186.12C870.239 179.208 884.351 175.752 899.903 175.752C915.071 175.752 928.799 179.016 941.087 185.544C953.375 192.072 962.975 201.48 969.887 213.768C976.991 225.864 980.543 239.976 980.543 256.104ZM900.191 209.736C890.015 209.736 881.471 212.616 874.559 218.376C867.647 224.136 863.423 232.008 861.887 241.992H938.207C936.671 232.2 932.447 224.424 925.535 218.664C918.623 212.712 910.175 209.736 900.191 209.736ZM1104.63 175.752C1123.83 175.752 1139.29 181.512 1151 193.032C1162.9 204.552 1168.85 221.64 1168.85 244.296V333H1123.93V251.208C1123.93 238.92 1121.24 229.8 1115.86 223.848C1110.49 217.704 1102.71 214.632 1092.53 214.632C1081.21 214.632 1072.18 218.184 1065.46 225.288C1058.74 232.2 1055.38 242.568 1055.38 256.392V333H1010.45V178.056H1053.37V196.2C1059.32 189.672 1066.71 184.68 1075.54 181.224C1084.37 177.576 1094.07 175.752 1104.63 175.752ZM1286.15 335.304C1269.64 335.304 1254.76 331.944 1241.51 325.224C1228.45 318.312 1218.18 308.808 1210.69 296.712C1203.4 284.616 1199.75 270.888 1199.75 255.528C1199.75 240.168 1203.4 226.44 1210.69 214.344C1218.18 202.248 1228.45 192.84 1241.51 186.12C1254.76 179.208 1269.64 175.752 1286.15 175.752C1302.47 175.752 1316.68 179.208 1328.77 186.12C1341.06 192.84 1349.99 202.536 1355.56 215.208L1320.71 233.928C1312.64 219.72 1301.03 212.616 1285.86 212.616C1274.15 212.616 1264.45 216.456 1256.77 224.136C1249.09 231.816 1245.25 242.28 1245.25 255.528C1245.25 268.776 1249.09 279.24 1256.77 286.92C1264.45 294.6 1274.15 298.44 1285.86 298.44C1301.22 298.44 1312.84 291.336 1320.71 277.128L1355.56 296.136C1349.99 308.424 1341.06 318.024 1328.77 324.936C1316.68 331.848 1302.47 335.304 1286.15 335.304ZM1474.47 175.752C1493.67 175.752 1509.13 181.512 1520.84 193.032C1532.75 204.552 1538.7 221.64 1538.7 244.296V333H1493.77V251.208C1493.77 238.92 1491.08 229.8 1485.71 223.848C1480.33 217.704 1472.55 214.632 1462.38 214.632C1451.05 214.632 1442.03 218.184 1435.31 225.288C1428.59 232.2 1425.23 242.568 1425.23 256.392V333H1380.3V119.304H1425.23V194.184C1431.18 188.232 1438.38 183.72 1446.83 180.648C1455.27 177.384 1464.49 175.752 1474.47 175.752Z"/><path fill="#fff" d="M51.9235 178.056H96.8515V333H51.9235V178.056ZM74.3875 156.456C66.1315 156.456 59.4115 154.056 54.2275 149.256C49.0435 144.456 46.4515 138.504 46.4515 131.4C46.4515 124.296 49.0435 118.344 54.2275 113.544C59.4115 108.744 66.1315 106.344 74.3875 106.344C82.6435 106.344 89.3635 108.648 94.5475 113.256C99.7315 117.864 102.324 123.624 102.324 130.536C102.324 138.024 99.7315 144.264 94.5475 149.256C89.3635 154.056 82.6435 156.456 74.3875 156.456Z"/></g><defs><clipPath id="clip0"><rect width="1585" height="512" fill="#fff"/></clipPath></defs></svg>